<?xml version="1.0" encoding="utf-8"?>
<!-- Generator: Adobe Illustrator 16.0.4, SVG Export Plug-In . SVG Version: 6.00 Build 0)  -->
<!DOCTYPE svg PUBLIC "-//W3C//DTD SVG 1.1//EN" "http://www.w3.org/Graphics/SVG/1.1/DTD/svg11.dtd">
<svg version="1.1" id="Layer_1" xmlns="http://www.w3.org/2000/svg" xmlns:xlink="http://www.w3.org/1999/xlink" x="0px" y="0px"
	 width="278px" height="50px" viewBox="0 0 278 50" enable-background="new 0 0 278 50" xml:space="preserve">
<g>
	<path opacity="0.5" fill="#FFFFFF" d="M91.082,29.438L99.01,9.566h9.201L94.312,42.212h-6.608L74,9.566h9.25L91.082,29.438z"/>
	<path opacity="0.5" fill="#FFFFFF" d="M119.224,11.524c0,2.447-1.958,4.405-4.405,4.405c-2.447,0-4.405-1.958-4.405-4.405
		s1.958-4.405,4.405-4.405C117.267,7.119,119.224,9.077,119.224,11.524z M118.735,42.212h-7.831V20.041h7.831V42.212z"/>
	<path opacity="0.5" fill="#FFFFFF" d="M138.802,25.767c-1.468-0.734-2.888-1.077-4.258-1.077c-1.371,0-2.398,0.685-2.398,1.566
		c0,1.027,0.392,1.224,3.524,1.908c4.454,0.881,6.46,2.985,6.46,6.607c0,4.992-4.16,8.271-10.572,8.271
		c-3.083,0-5.971-0.832-8.859-2.545l2.839-5.53c2.056,1.37,4.454,2.251,6.265,2.251c1.419,0,2.447-0.734,2.447-1.713
		c0-1.126-0.587-1.469-3.328-2.056c-4.797-0.979-6.51-2.643-6.51-6.265c0-4.846,3.867-7.929,9.887-7.929
		c2.692,0,4.699,0.392,7.146,1.419L138.802,25.767z"/>
	<path opacity="0.5" fill="#FFFFFF" d="M153.926,32.619c0,2.691,1.322,4.062,4.014,4.062c2.643,0,3.964-1.371,3.964-4.062V20.041
		h7.831v14.096c0,5.873-4.111,9.006-11.795,9.006c-7.734,0-11.845-3.133-11.845-9.006V20.041h7.831V32.619z"/>
	<path opacity="0.5" fill="#FFFFFF" d="M199.102,20.041v22.171h-7.831v-2.447c-1.713,2.203-3.866,3.182-6.853,3.182
		c-6.313,0-11.207-5.188-11.207-11.845c0-6.705,4.845-11.795,11.158-11.795c2.839,0,4.943,0.881,6.901,2.888v-2.154H199.102z
		 M181.384,31.102c0,2.79,2.3,5.091,5.09,5.091s5.042-2.252,5.042-5.042c0-2.838-2.252-5.09-5.042-5.09
		C183.635,26.061,181.384,28.312,181.384,31.102z"/>
	<path opacity="0.5" fill="#FFFFFF" d="M212.268,42.212h-7.83V6.336h7.83V42.212z"/>
	<path fill="#FFFFFF" d="M241.83,20.677c-2.007-2.398-4.404-3.573-7.342-3.573c-5.09,0-8.761,3.769-8.761,9.005
		c0,5.041,3.72,8.762,8.761,8.762c2.79,0,5.139-1.077,7.342-3.427v10.033c-3.965,1.322-5.286,1.615-7.488,1.615
		c-9.838,0-17.474-7.439-17.474-17.032c0-9.544,7.685-17.179,17.278-17.179c2.545,0,4.6,0.44,7.684,1.664V20.677z"/>
	<path fill="#FFFFFF" d="M260.869,29.438l7.93-19.871H278l-13.9,32.646h-6.606L243.789,9.566h9.25L260.869,29.438z"/>
</g>
<g>
	<path fill="#FFFFFF" d="M38.556,18.197c3.771,0.002,6.824,3.046,6.819,6.803c0,3.761-3.047,6.803-6.816,6.803H17.305
		c-3.769,0-6.816-3.042-6.816-6.802c0-3.757,3.061-6.804,6.813-6.804H38.556z"/>
	<path fill="#FFFFFF" d="M6.818,13.606C3.047,13.604-0.006,10.56,0,6.803C0,3.042,3.047,0,6.815,0h42.366
		C52.948,0,56,3.042,56,6.803c0,3.758-3.06,6.803-6.816,6.803H6.818z"/>
	<path fill="#FFFFFF" d="M21.135,43.191c0-3.756,3.045-6.798,6.814-6.798c3.768,0,6.817,3.042,6.817,6.798
		c0,3.76-3.06,6.809-6.814,6.809C24.18,49.996,21.132,46.948,21.135,43.191z"/>
</g>
</svg>
