<svg xmlns="http://www.w3.org/2000/svg" width="512" height="512" viewBox="0 0 512 512"><g fill="#008cdb"><path d="M496 159.211H365.232v19.383h53.944v167.195h22.885V178.594H496zM343.163 178.594v-19.383h-99.94v186.578h99.94v-19.391h-77.058V261.25h68.654v-19.383h-68.654v-63.273zM48.227 336.68c0 8.898-7.212 16.109-16.109 16.109-8.902 0-16.117-7.211-16.117-16.109 0-8.906 7.215-16.109 16.117-16.109 8.896-.001 16.109 7.202 16.109 16.109zM217.232 159.211h-22.888v147.297L89.102 159.211H66.217v186.578h22.885V198.633L194.42 345.789h22.812z"/></g></svg>